<svg id="Layer_1" data-name="Layer 1" xmlns="http://www.w3.org/2000/svg" viewBox="0 0 2030.6 347"><defs><style>.cls-1{isolation:isolate;}.cls-2{fill:#fff;}</style></defs><g class="cls-1"><path class="cls-2" d="M382.18,111.75l-60.43,79.5h-6.9l-59.11-79.76V244.6h-35V61.54H261l58.06,78.72,58-78.72h40V244.6h-35Z"/><path class="cls-2" d="M583.12,115.41l-79.79,182.8H467.81l24.39-56L440,115.41h37.64l19.88,55.7L510,207.46l13.51-35.56,23.86-56.49Z"/><path class="cls-2" d="M788.55,153.85c-.53,47.34-29.95,94.67-95.16,94.67S598,202.23,598,154.12s31.28-96.5,95.43-96.5C757.27,57.62,789.08,106,788.55,153.85Zm-156.13.79c.8,30.07,17.23,62.24,61,62.24s60.17-32.43,60.7-62.5c.53-30.86-17-65.38-60.7-65.38S631.62,123.78,632.42,154.64Z"/><path class="cls-2" d="M815.59,298.21V115.41h30.22l2.12,17.79c10.07-14.39,27.57-20.66,42.41-20.66,40.29,0,67.07,29.55,67.07,67.47,0,37.65-24.13,67.46-66,67.46-13.78,0-34.19-4.18-43.47-18.3v69ZM925.07,180c0-20.14-13.79-36.61-37.11-36.61S850.84,159.87,850.84,180,866,216.62,888,216.62,925.07,200.14,925.07,180Z"/><path class="cls-2" d="M1012.54,191.25c2.13,15.95,16.17,27.46,39,27.46,11.93,0,27.57-4.45,35-12l20.68,20.13c-13.79,14.13-36.32,20.93-56.2,20.93-45.06,0-71.83-27.46-71.83-68.78,0-39.23,27-67.47,69.45-67.47,43.73,0,71,26.68,66,79.76Zm71-26.41c-2.12-16.74-15.37-25.11-33.92-25.11-17.5,0-31.81,8.37-36.58,25.11Z"/><path class="cls-2" d="M1239.45,244.34V176.87c0-19.62-10.87-34.52-31.54-34.52-19.88,0-33.4,16.47-33.4,36.09v65.9h-32.08V115.15h28.9l2.12,17.52c13.25-12.81,26.5-19.35,42.94-19.35,30.75,0,55.4,22.75,55.4,63.29v67.73Z"/><path class="cls-2" d="M1469.27,221.32c-19.08,18.57-43.73,27.2-70.51,27.2-68.92,0-98.07-46.81-98.34-94.4-.26-47.86,31.28-96.5,98.34-96.5,25.19,0,49,9.42,68.13,28l-23.33,22.23c-12.19-11.77-28.63-17.26-44.8-17.26-44.79,0-64.14,33-63.88,63.55.27,30.33,18,62,63.88,62,16.17,0,34.46-6.53,46.66-18.56Z"/><path class="cls-2" d="M1617.45,180c0,37.13-25.71,67.2-68.12,67.2s-67.86-30.07-67.86-67.2c0-36.88,26-67.21,67.59-67.21S1617.45,143.13,1617.45,180Zm-103.64,0c0,19.61,11.92,37.91,35.52,37.91s35.52-18.3,35.52-37.91c0-19.36-13.79-38.18-35.52-38.18C1526,141.83,1513.81,160.65,1513.81,180Z"/><path class="cls-2" d="M1676.56,115.41v67.47c0,19.62,10.87,34.52,31.55,34.52,19.88,0,33.4-16.47,33.4-36.09v-65.9h32.07V244.6h-28.89l-2.12-17.52c-13.52,13.07-26,19.35-44.27,19.35-31.28,0-54.08-23.28-54.08-63.29V115.41Z"/><path class="cls-2" d="M1835.88,115.41l2.38,14.91c10.08-15.95,23.6-18.31,36.85-18.31,13.52,0,26.51,5.23,33.66,12.3L1894.19,152c-6.62-5.49-12.72-8.36-23.32-8.36-17,0-32.61,8.89-32.61,32.68v68h-32.34V115.41Z"/><path class="cls-2" d="M1978.49,79.06v36.62h36v27.45h-36.32v55.7c0,12.29,6.89,18.31,17,18.31a37.46,37.46,0,0,0,15.64-3.92l9,27.19a73.11,73.11,0,0,1-26.77,5.49c-28.37,1-46.92-14.9-46.92-47.07v-55.7h-24.39V115.68h24.39V82.46Z"/></g><path class="cls-2" d="M103.8,153.4l71.3,71.3-8.9,8.9L14.3,81.7l8.9-8.9,71.7,71.7,4.4-4.4L146.5,93a79,79,0,0,0-98.2-4l-8.9-8.9a91.55,91.55,0,0,1,115.9,4.1l12.6-12.6,8.9,8.9L164.2,93.1a91.39,91.39,0,0,1,3.5,115.1l-8.9-8.9a79,79,0,0,0-3.4-97.5Z"/><path class="cls-2" d="M149.7,225.9a91.48,91.48,0,0,1-114.5-4L22.5,234.6l-8.9-8.9,12.6-12.6A91.36,91.36,0,0,1,21.6,98l8.9,8.9A79,79,0,0,0,94.8,231.8a78.25,78.25,0,0,0,45.9-14.7Z"/></svg>