<svg id="Layer_1" data-name="Layer 1" xmlns="http://www.w3.org/2000/svg" viewBox="0 0 2030.62 347"><defs><style>.cls-1{isolation:isolate;}.cls-2{fill:#11335d;}.cls-3{fill:#9d1939;}</style></defs><g class="cls-1"><path class="cls-2" d="M382.18,111.75l-60.43,79.5h-6.9l-59.11-79.76V244.6h-35V61.54H261l58.06,78.72,58-78.72h40V244.6h-35Z"/><path class="cls-2" d="M584.18,115.41l-79.79,182.8H468.87l24.38-56L441,115.41h37.64l19.88,55.7L511,207.46l13.52-35.56,23.86-56.49Z"/><path class="cls-2" d="M790.67,153.85c-.53,47.34-29.95,94.67-95.16,94.67s-95.43-46.29-95.43-94.4,31.28-96.5,95.43-96.5C759.39,57.62,791.2,106,790.67,153.85Zm-156.13.79c.8,30.07,17.23,62.24,61,62.24s60.17-32.43,60.7-62.5c.53-30.86-17-65.38-60.7-65.38S633.75,123.78,634.54,154.64Z"/><path class="cls-2" d="M818.77,298.21V115.41H849l2.12,17.79c10.07-14.39,27.57-20.66,42.41-20.66,40.29,0,67.07,29.55,67.07,67.47,0,37.65-24.13,67.46-66,67.46-13.78,0-34.19-4.18-43.47-18.3v69ZM928.25,180c0-20.14-13.79-36.61-37.11-36.61S854,159.87,854,180s15.1,36.61,37.11,36.61S928.25,200.14,928.25,180Z"/><path class="cls-2" d="M1016.79,191.25c2.12,15.95,16.17,27.46,39,27.46,11.93,0,27.57-4.45,35-12l20.68,20.13c-13.79,14.13-36.32,20.93-56.2,20.93-45.06,0-71.83-27.46-71.83-68.78,0-39.23,27-67.47,69.45-67.47,43.73,0,71,26.68,66,79.76Zm71-26.41c-2.12-16.74-15.38-25.11-33.93-25.11-17.5,0-31.81,8.37-36.58,25.11Z"/><path class="cls-2" d="M1244.75,244.34V176.87c0-19.62-10.87-34.52-31.54-34.52-19.88,0-33.4,16.47-33.4,36.09v65.9h-32.08V115.15h28.9l2.12,17.52c13.25-12.81,26.51-19.35,42.94-19.35,30.75,0,55.4,22.75,55.4,63.29v67.73Z"/><path class="cls-2" d="M1475.64,221.32c-19.09,18.57-43.74,27.2-70.51,27.2-68.92,0-98.08-46.81-98.35-94.4-.26-47.86,31.28-96.5,98.35-96.5,25.18,0,49,9.42,68.12,28l-23.33,22.23c-12.19-11.77-28.62-17.26-44.79-17.26-44.8,0-64.15,33-63.89,63.55.27,30.33,18,62,63.89,62,16.17,0,34.46-6.53,46.65-18.56Z"/><path class="cls-2" d="M1624.87,180c0,37.13-25.71,67.2-68.12,67.2s-67.86-30.07-67.86-67.2c0-36.88,26-67.21,67.59-67.21S1624.87,143.13,1624.87,180Zm-103.64,0c0,19.61,11.93,37.91,35.52,37.91s35.52-18.3,35.52-37.91c0-19.36-13.78-38.18-35.52-38.18C1533.42,141.83,1521.23,160.65,1521.23,180Z"/><path class="cls-2" d="M1685.05,115.41v67.47c0,19.62,10.87,34.52,31.54,34.52,19.88,0,33.4-16.47,33.4-36.09v-65.9h32.07V244.6h-28.89l-2.12-17.52c-13.52,13.07-26,19.35-44.27,19.35-31.28,0-54.07-23.28-54.07-63.29V115.41Z"/><path class="cls-2" d="M1845.42,115.41l2.39,14.91c10.07-15.95,23.59-18.31,36.84-18.31,13.52,0,26.51,5.23,33.67,12.3L1903.74,152c-6.63-5.49-12.73-8.36-23.33-8.36-17,0-32.6,8.89-32.6,32.68v68h-32.34V115.41Z"/><path class="cls-2" d="M1989.09,79.06v36.62h36.05v27.45h-36.32v55.7c0,12.29,6.9,18.31,17,18.31a37.38,37.38,0,0,0,15.64-3.92l9,27.19a73.06,73.06,0,0,1-26.77,5.49c-28.36,1-46.92-14.9-46.92-47.07v-55.7h-24.39V115.68h24.39V82.46Z"/></g><path d="M103.84,153.38l71.25,71.26-8.9,8.91L14.3,81.66l8.9-8.91,71.74,71.74L99.38,140,146.46,93A79,79,0,0,0,48.3,89l-8.87-8.87a91.39,91.39,0,0,1,115.83,4.07l12.58-12.58,8.9,8.9L164.11,93.11a91.37,91.37,0,0,1,3.43,115.1l-8.86-8.87a79,79,0,0,0-3.38-97.42Z"/><path class="cls-3" d="M149.66,225.94A91.41,91.41,0,0,1,35.19,222L22.5,234.72l-8.86-8.86,12.65-12.65A91.4,91.4,0,0,1,21.69,98l8.89,8.89A79,79,0,0,0,140.77,217.06Z"/></svg>