<?xml version="1.0" encoding="utf-8"?>
<!-- Generator: Adobe Illustrator 24.1.0, SVG Export Plug-In . SVG Version: 6.00 Build 0)  -->
<svg version="1.1" id="Layer_1" xmlns="http://www.w3.org/2000/svg" xmlns:xlink="http://www.w3.org/1999/xlink" x="0px" y="0px"
	 viewBox="0 0 1366 768" style="enable-background:new 0 0 1366 768;" xml:space="preserve">
<style type="text/css">
	.st0{opacity:0.16;fill:#9D1939;enable-background:new    ;}
	.st1{opacity:0.24;fill:#EEBD31;enable-background:new    ;}
	.st2{opacity:0.16;fill:#11335D;enable-background:new    ;}
</style>
<g>
	<path class="st0" d="M948.3,319.6L948.3,319.6c-27.3-14.2-31.9-51.5-8.8-71.8l0,0c32.8-28.9,7.7-82.8-35.5-76.3l0,0
		c-30.5,4.6-56-22.9-49.3-52.9l0,0c9.5-42.7-42.4-71.5-73.6-40.8l0,0c-22,21.6-58.8,14.4-71-13.8l0,0
		c-17.4-40.1-76.3-32.9-83.5,10.2l0,0c-5.1,30.4-39.1,46.2-65.6,30.5l0,0c-37.6-22.3-81.1,18.2-61.6,57.3l0,0
		c13.8,27.6-4.4,60.4-35.1,63.3l0,0c-43.5,4.1-54.9,62.4-16.1,82.6l0,0c27.4,14.2,31.9,51.5,8.8,71.8l0,0
		c-32.8,28.9-7.7,82.8,35.5,76.3l0,0c30.5-4.6,56.1,22.9,49.3,53l0,0c-9.5,42.7,42.4,71.5,73.6,40.8l0,0c22-21.6,58.8-14.5,71,13.8
		l0,0c17.4,40.1,76.3,32.9,83.5-10.2l0,0c5.1-30.4,39.1-46.2,65.6-30.5l0,0c37.6,22.3,81.1-18.2,61.6-57.4l0,0
		c-13.8-27.6,4.4-60.4,35.1-63.3l0,0C975.8,398,987.2,339.7,948.3,319.6z"/>
	<path class="st1" d="M281.9,473.7L281.9,473.7c-6-21.3-31.5-30-49.2-16.7l0,0c-25.1,18.8-59.3-6.7-48.4-36.2l0,0
		c7.7-20.8-7.8-42.8-30-42.5l0,0c-31.2,0.4-43.8-39.8-18.4-57.4c-36.8,20.5-61.7,59.8-61.7,104.9C74.3,492.2,128,546,194.3,546
		c42.1,0,87.2-27.3,108.7-60C297.1,482.2,284.2,481.9,281.9,473.7z"/>
	<path class="st2" d="M515.1,326.6L515.1,326.6c-19.4-12.2-19-38,0.8-49.8l0,0c28.1-16.7,14.5-55.7-19.2-55.3l0,0
		c-23.8,0.3-40.5-20.8-32.2-40.7l0,0c11.8-28.2-25-52.7-52-34.7l0,0c-19,12.7-46.5,4.4-52.9-16l0,0c-9.1-29-54.9-29.6-64.9-0.8l0,0
		c-7,20.3-34.7,27.9-53.3,14.7l0,0c-26.5-18.7-63.9,4.9-53.1,33.4l0,0c7.7,20.1-9.7,40.8-33.4,39.9l0,0
		c-33.7-1.2-48.5,37.5-20.9,54.8l0,0c19.4,12.2,19,38-0.8,49.8l0,0c-0.2,0.1-0.4,0.2-0.6,0.4c18.6-9.2,40-14.5,62.7-14.5
		c71.2,0,129,51.5,129,115.1c0,23.2-7.7,44.9-21,63c17.3,10,43.7,4.7,51-16.4l0,0c7-20.3,34.7-27.9,53.3-14.7l0,0
		c26.5,18.7,63.9-4.9,53-33.4l0,0c-7.7-20.1,9.7-40.8,33.4-39.9l0,0C527.9,382.7,542.6,343.9,515.1,326.6z"/>
</g>
</svg>
